# xmcd CD database file
# Copyright (C) 1995 Ti Kan
#
# Track frame offsets:
#	150
#	15790
#	29095
#	36420
#	51710
#	60912
#	72366
#	89966
#	100762
#	122079
#	132555
#	153065
#	165162
#	187995
#	199615
#	216213
#	224505
#	239648
#	254228
#	265445
#	293953
#	296558
#	299558
#	300683
#	301808
#	307360
#
# Disc length: 4303 seconds
#
# Revision: 4
# Processed by: cddbd v1.4b42PL1 Copyright (c) Steve Scherf et al.
# Submitted via: NotifyCDPlayer(CDDB) 1.60beta5_freedb
#
DISCID=a210cd1a
DTITLE=Various Artist - Bessere Zeiten Klingen Gut (L'age D'or Kompilation)
DTITLE=Various Artist - CD 1
DYEAR=1900
DGENRE=
TTITLE0=Die Sterne/Ruiniert (Single Version)
TTITLE1=Schorsch Kamerun/Die Jugend Ist Die Schönste Zeit Des Lebens
TTITLE2=Tocotronic/Die Welt Kann Mich Nicht Mehr Verstehen
TTITLE3=Concord/Ich Fürchte Fast, Es Ist Mir Egal
TTITLE4=Stella/Words Sane Like Dirt
TTITLE5=Tilman Rossmy/Bodycount T-Shirt
TTITLE6=Avanti Knarf Rellöm/Der Idiot
TTITLE7=Schorsch Kamerun/Menschen Haben Keine Ahnung
TTITLE8=Hans Platzgumer/Das Blinde Volk
TTITLE9=Workshop/Belgravia
TTITLE10=Stella/Americ
TTITLE11=Ostzonensuppenwürfelmachenkrebs/Traumgestalter
TTITLE12=Sand/Unter Geiern 2 (Sterne Remix)
TTITLE13=Arne Zank/House Of The Rising Sun
TTITLE14=Die Aeronauten/Schnee
TTITLE15=Popken/Immer Mehr
TTITLE16=Die Sterne/Risikobiografie
TTITLE17=Tocotronic/Du Bist Ganz Schön Bedient
TTITLE18=Ja König Ja/Geht Nicht Gut
TTITLE19=Hans Platzgumer/Moloch
TTITLE20=Pause 1
TTITLE21=Pause 2
TTITLE22=Pause 3
TTITLE23=Pause 4
TTITLE24=Pause 5
TTITLE25=Tocotronic/Letztes Jahr Im Sommer (Live)
EXTD=
EXTT0=
EXTT1=
EXTT2=
EXTT3=
EXTT4=
EXTT5=
EXTT6=
EXTT7=
EXTT8=
EXTT9=
EXTT10=
EXTT11=
EXTT12=
EXTT13=
EXTT14=
EXTT15=
EXTT16=
EXTT17=
EXTT18=
EXTT19=
EXTT20=
EXTT21=
EXTT22=
EXTT23=
EXTT24=
EXTT25=
PLAYORDER=
